<svg width="400" height="300" version="1.1" viewBox="0 0 105.83 79.375" xmlns="http://www.w3.org/2000/svg">    <g transform="translate(-44.857 -84.625)" stroke="#808080" stroke-width=".26458">        <g transform="translate(1.9844 1.4552)"> <!-- Up face -->            <rect fill="#a00" x="70.39" y="84.757" width="8.4667" height="8.4667" ry="0"/>            <rect fill="#f2f2f2" x="78.856" y="84.757" width="8.4667" height="8.4667" ry="0"/>            <rect fill="#a00" x="87.323" y="84.757" width="8.4667" height="8.4667" ry="0"/>            <rect fill="#f2f2f2" x="70.39" y="93.224" width="8.4667" height="8.4667" ry="0"/>            <rect fill="#f2f2f2" x="78.856" y="93.224" width="8.4667" height="8.4667" ry="0"/>            <rect fill="#f2f2f2" x="87.323" y="93.224" width="8.4667" height="8.4667" ry="0"/>            <rect fill="#f2f2f2" x="70.39" y="101.69" width="8.4667" height="8.4667" ry="0"/>            <rect fill="#f2f2f2" x="78.856" y="101.69" width="8.4667" height="8.4667" ry="0"/>            <rect fill="#ff7300" x="87.323" y="101.69" width="8.4667" height="8.4667" ry="0"/>        </g>        <g transform="translate(1.9844 26.855)"> <!-- Front face -->            <rect fill="#5aa02c" x="70.39" y="84.757" width="8.4667" height="8.4667" ry="0"/>            <rect fill="#ff7300" x="78.856" y="84.757" width="8.4667" height="8.4667" ry="0"/>            <rect fill="#fc0" x="87.323" y="84.757" width="8.4667" height="8.4667" ry="0"/>            <rect fill="#ff7300" x="70.39" y="93.224" width="8.4667" height="8.4667" ry="0"/>            <rect fill="#ff7300" x="78.856" y="93.224" width="8.4667" height="8.4667" ry="0"/>            <rect fill="#08a" x="87.323" y="93.224" width="8.4667" height="8.4667" ry="0"/>            <rect fill="#08a" x="70.39" y="101.69" width="8.4667" height="8.4667" ry="0"/>            <rect fill="#ff7300" x="78.856" y="101.69" width="8.4667" height="8.4667" ry="0"/>            <rect fill="#ff7300" x="87.323" y="101.69" width="8.4667" height="8.4667" ry="0"/>        </g>        <g transform="translate(-23.416 26.855)"> <!-- Left face -->            <rect fill="#5aa02c" x="70.39" y="84.757" width="8.4667" height="8.4667" ry="0"/>            <rect fill="#5aa02c" x="78.856" y="84.757" width="8.4667" height="8.4667" ry="0"/>            <rect fill="#a00" x="87.323" y="84.757" width="8.4667" height="8.4667" ry="0"/>            <rect fill="#08a" x="70.39" y="93.224" width="8.4667" height="8.4667" ry="0"/>            <rect fill="#5aa02c" x="78.856" y="93.224" width="8.4667" height="8.4667" ry="0"/>            <rect fill="#5aa02c" x="87.323" y="93.224" width="8.4667" height="8.4667" ry="0"/>            <rect fill="#ff7300" x="70.39" y="101.69" width="8.4667" height="8.4667" ry="0"/>            <rect fill="#a00" x="78.856" y="101.69" width="8.4667" height="8.4667" ry="0"/>            <rect fill="#f2f2f2" x="87.323" y="101.69" width="8.4667" height="8.4667" ry="0"/>        </g>        <g transform="translate(27.384 26.855)"> <!-- Right face -->            <rect fill="#08a" x="70.39" y="84.757" width="8.4667" height="8.4667" ry="0"/>            <rect fill="#08a" x="78.856" y="84.757" width="8.4667" height="8.4667" ry="0"/>            <rect fill="#08a" x="87.323" y="84.757" width="8.4667" height="8.4667" ry="0"/>            <rect fill="#a00" x="70.39" y="93.224" width="8.4667" height="8.4667" ry="0"/>            <rect fill="#08a" x="78.856" y="93.224" width="8.4667" height="8.4667" ry="0"/>            <rect fill="#fc0" x="87.323" y="93.224" width="8.4667" height="8.4667" ry="0"/>            <rect fill="#fc0" x="70.39" y="101.69" width="8.4667" height="8.4667" ry="0"/>            <rect fill="#ff7300" x="78.856" y="101.69" width="8.4667" height="8.4667" ry="0"/>            <rect fill="#a00" x="87.323" y="101.69" width="8.4667" height="8.4667" ry="0"/>        </g>        <g transform="translate(52.784 26.855)"> <!-- Back face -->            <rect fill="#fc0" x="70.39" y="84.757" width="8.4667" height="8.4667" ry="0"/>            <rect fill="#a00" x="78.856" y="84.757" width="8.4667" height="8.4667" ry="0"/>            <rect fill="#fc0" x="87.323" y="84.757" width="8.4667" height="8.4667" ry="0"/>            <rect fill="#5aa02c" x="70.39" y="93.224" width="8.4667" height="8.4667" ry="0"/>            <rect fill="#a00" x="78.856" y="93.224" width="8.4667" height="8.4667" ry="0"/>            <rect fill="#fc0" x="87.323" y="93.224" width="8.4667" height="8.4667" ry="0"/>            <rect fill="#08a" x="70.39" y="101.69" width="8.4667" height="8.4667" ry="0"/>            <rect fill="#a00" x="78.856" y="101.69" width="8.4667" height="8.4667" ry="0"/>            <rect fill="#f2f2f2" x="87.323" y="101.69" width="8.4667" height="8.4667" ry="0"/>        </g>        <g transform="translate(1.9844 52.255)"> <!-- Down face -->            <rect fill="#ff7300" x="70.39" y="84.757" width="8.4667" height="8.4667" ry="0"/>            <rect fill="#fc0" x="78.856" y="84.757" width="8.4667" height="8.4667" ry="0"/>            <rect fill="#5aa02c" x="87.323" y="84.757" width="8.4667" height="8.4667" ry="0"/>            <rect fill="#fc0" x="70.39" y="93.224" width="8.4667" height="8.4667" ry="0"/>            <rect fill="#fc0" x="78.856" y="93.224" width="8.4667" height="8.4667" ry="0"/>            <rect fill="#08a" x="87.323" y="93.224" width="8.4667" height="8.4667" ry="0"/>            <rect fill="#5aa02c" x="70.39" y="101.69" width="8.4667" height="8.4667" ry="0"/>            <rect fill="#5aa02c" x="78.856" y="101.69" width="8.4667" height="8.4667" ry="0"/>            <rect fill="#f2f2f2" x="87.323" y="101.69" width="8.4667" height="8.4667" ry="0"/>        </g>    </g></svg>